<?xml version="1.0" encoding="UTF-8"?>
<svg id="Layer_1" data-name="Layer 1" xmlns="http://www.w3.org/2000/svg" viewBox="0 0 778.76 243.87">
  <defs>
    <style>
      .cls-1 {
        fill: #214698;
      }

      .cls-2 {
        fill: #ea9944;
      }

      .cls-3 {
        fill: #21409a;
      }
    </style>
  </defs>
  <g>
    <g>
      <path class="cls-1" d="M66.32,106.89s-.09,0-.13,0c.03,0,.06,0,.09.02.01,0,.02,0,.04-.01Z"/>
      <path class="cls-3" d="M105.48,137.65c-.14-.52-.49-.96-.95-1.23-.51-.3-1.01-.31-1.57-.22-.66.08-1.31.19-1.97.28-.85.09-1.7.11-2.55.17-.75.05-1.5.15-2.24.25-.76.09-1.52.16-2.28.2-.9.05-1.81.13-2.71.15-.89.02-1.78.04-2.67.08-.59.03-1.17.05-1.76.03,0-.06,0-.11,0-.17,0-.47.02-.95.04-1.42.04-.96.1-1.91.17-2.87.08-1,.09-2.01.15-3.01.06-1.03.06-2.06.06-3.09,0-2.01,0-4.01-.02-6.02-.02-2.08-.04-4.17-.29-6.24-.25-2.03-.48-4.07-1.05-6.05-.58-2.03-1.4-4.1-2.76-5.75-.7-.84-1.49-1.63-2.4-2.24-.88-.59-1.83-1.03-2.83-1.38-1.76-.62-3.6-1.02-5.44-1.3-2.06-.31-4.12-.5-6.19-.53-2.1-.03-4.2-.13-6.31-.13h-.14c-.98,0-1.97.08-2.95.16-1.04.08-2.07.14-3.12.19-2.46.12-4.92.22-7.38.36-1.12.06-2.06.89-2.06,2.07,0,1.07.94,2.13,2.06,2.06,2.24-.13,4.48-.22,6.72-.33,1.97-.1,3.94-.28,5.9-.35,2.02-.08,4.03.06,6.05.08,1.84.02,3.69.06,5.53.28,2.26.32,4.52.77,6.66,1.58.52.25,1.02.54,1.5.86.46.4.89.84,1.29,1.31.53.79.97,1.62,1.35,2.48.63,1.65,1,3.43,1.26,5.17.11.9.22,1.8.3,2.7.09,1.04.11,2.09.13,3.13.05,2.04.04,4.07.05,6.11v2.94c0,1.07-.08,2.12-.13,3.18-.09,1.89-.25,3.77-.29,5.66-.01.74-.09,1.54.07,2.26.28,1.26,1.38,2.05,2.6,2.27,1.34.24,2.66.13,4.01.08,1.36-.05,2.71-.09,4.07-.17,1.25-.07,2.48-.19,3.71-.35-.1.01-.2.03-.3.04.93-.12,1.86-.19,2.8-.23,1.11-.04,2.2-.23,3.29-.39.38-.04.76-.08,1.13-.14.5-.09.99-.52,1.24-.94.28-.48.36-1.06.21-1.6Z"/>
      <path class="cls-3" d="M104.2,102.85c.88-.3,1.77-.6,2.67-.83.68-.17,1.38-.29,2.08-.39,1.94-.18,3.88-.11,5.82-.23,1.1-.07,2.19-.1,3.29-.18,1.08-.07,2.15-.12,3.23-.15,3.91-.12,7.82-.06,11.73-.06h1.22c1.12,0,2.06-.94,2.06-2.06s-.94-2.07-2.06-2.07c-1.81,0-3.63,0-5.44,0-2.11,0-4.23,0-6.34.04-2.14.03-4.26.2-6.4.28-1,.04-1.99.12-2.99.13-.99,0-1.99.04-2.98.07-1.2.05-2.4.24-3.57.47-1.17.23-2.29.6-3.42.99-1.06.36-1.76,1.41-1.44,2.54.29,1.04,1.48,1.81,2.54,1.44Z"/>
      <path class="cls-3" d="M102.6,152.32c-.29-.17-.7-.3-1.08-.3-.18,0-.35.03-.51.09-.58.24-1.17.47-1.76.67-.83.29-1.71.49-2.56.71-1.54.4-3.1.79-4.67,1.04-1.98.14-3.98-.03-5.95-.23-.52-.05-1.11.25-1.46.61-.38.38-.6.91-.6,1.46s.22,1.07.6,1.46c.42.42.89.55,1.46.61,1.59.16,3.16.24,4.76.27,1.39.02,2.75-.26,4.1-.54,2.43-.52,4.88-1.12,7.18-2.06.52-.22.94-.44,1.24-.95.28-.48.36-1.06.21-1.59-.14-.51-.49-.96-.95-1.23Z"/>
      <path class="cls-2" d="M165.39,77.14l-.02.52c-.06,1.36-.17,2.73-.35,4.47-.11.63-.23,1.3-.46,1.96-.33.74-.78,1.7-1.37,2.56-.39.44-.84.83-1.27,1.17-.35.25-.71.46-1.09.65-.32.11-.64.18-.98.25-.49.05-1.03.07-1.68.07-.42,0-.85,0-1.27-.02-.72-.01-1.33-.03-1.94-.05.16-.4.29-.84.4-1.29.11-.44.2-.89.29-1.34l.14-.67c.17-.8.33-1.61.45-2.43.12-.77.26-1.74.27-2.69,0-.73-.05-1.46-.15-2.26-.08-.59-.19-1.18-.3-1.76-.06-.31-.11-.63-.17-.94-.12-.67-.23-1.34-.33-2-.2-1.63-.35-3.28-.46-5.04-.04-.61-.11-1.21-.18-1.81l-.1-.88c-.08-.88-.14-1.77-.18-2.65-.09-1.96-.29-3.82-.6-5.69-.05-.3-.1-.6-.15-.9-.12-.6-.36-1.17-.6-1.69-.12-.27-.26-.54-.39-.8l.6.16c.7.14,1.39.28,2.09.4,1.45.26,2.72.6,3.87,1.05.64.31,1.2.63,1.72.99.26.23.49.48.72.75.4.55.72,1.1,1,1.66.33.94.49,1.95.62,2.83l.15.97.06.39c.04.26.08.52.12.77,0,0,0,.05,0,.06,0,0,.01.06.01.06h.03s0,.12,0,.12l.08.83.07.57c.05.41.1.82.16,1.23.07.59.15,1.17.24,1.76l.16,1.11c.1.71.21,1.36.33,2.01.11.65.22,1.3.32,1.95.07.61.12,1.22.16,1.84.03.58,0,1.19-.03,1.72Z"/>
      <path class="cls-2" d="M152.25,81.69c-.25,1.63-.53,3.07-.85,4.39-.16.66-.36,1.31-.56,1.96l-.11.36-.66-.08-.69-.08c-1.08-.11-2.16-.24-3.24-.38l-.87-.15c-.72-.12-1.44-.25-2.16-.35-.62-.09-1.24-.17-1.86-.24.13-.35.24-.77.35-1.34.22-1.1.41-2.18.46-3.27.06-1.16-.01-2.36-.07-3.42v-.14c-.05-.81-.1-1.65-.09-2.47,0-2.14.02-4.34.13-6.5.02-.37.04-.75.07-1.12l.03-.38c.04-.52.07-1,.1-1.48.03-.6.05-1.21.06-1.81l.02-.5c.01-.34.02-.68.04-1.02.07-1.68.11-3.66-.08-5.71-.13-1.3-.28-2.37-.47-3.36-.12-.6-.27-1.23-.48-1.93l1.76.21,1,.11.46.05c.96.11,1.93.19,2.9.27l.37.03c.61,1.03,1.27,2.14,1.82,3.29.28.81.41,1.68.52,2.45l.05.32c.15,1.33.23,2.75.29,3.88l.03.52c.04.76.12,1.51.19,2.27l.02.25.03.29c.07.68.14,1.36.18,2.04.11,1.75.27,3.37.48,4.96.13,1.01.31,2.03.49,3.01l.02.13.04.22c.09.49.17.97.26,1.46.12,1.11.13,2.21.01,3.24Z"/>
      <path class="cls-2" d="M138.17,63.54c-.01.34-.03.68-.04,1.02l-.02.5v.44c-.03.44-.04.88-.06,1.32-.03.66-.08,1.33-.12,2l-.07,1.11c-.11,1.84-.12,3.73-.13,5.55v.24s0,.62,0,.62c0,.9.05,1.85.1,2.61.06,1.04.13,2.23.08,3.36-.02.41-.06.8-.11,1.2-.16,1.05-.4,2.09-.75,3.17l-.53-.05-.43-.04c-.95-.1-1.9-.19-2.85-.31-.44-.05-.88-.1-1.32-.14.03-.19.03-.41.03-.63,0-.3,0-.6,0-.9.04-.96.1-1.92.18-2.87.08-.88.16-1.75.24-2.63l.06-.65c.09-.89.17-1.78.25-2.68.06-.7.13-1.41.2-2.11l.04-.42.03-.27c.12-1.11.23-2.23.3-3.35.07-1.14.12-2.29.17-3.44.04-.99.08-1.95.14-2.91.05-.86-.02-1.73-.07-2.57l-.04-.52c-.09-1.4-.22-2.45-.42-3.4-.29-1.38-.66-2.84-1.14-4.46l.79.07c.71.04,1.42.04,2.13.05h.91c.37,0,.73.02,1.09.03l.09.13h-.01c.33.98.59,1.94.77,2.67.16.63.24,1.29.31,1.82.21,2.16.27,4.26.17,6.42Z"/>
      <path class="cls-2" d="M152.78,49.39c-.48-.14-.97-.26-1.46-.39-1.94-.48-3.9-.83-5.21-1.05-1.61-.27-3.21-.59-4.81-.91l-.59-.11c-1.84-.36-3.68-.72-5.53-1.02l-.34-.06s0,0,0,0h-.23s-.08-.05-.07-.09c.05-.45.02-.93-.13-1.76-.1-.5-.19-.99-.27-1.48,0,0,0,0,0,0-.16-1.47-.35-3.04-.69-4.56-.24-1.06-.53-2.1-.86-3.24l-.29-1.02c-.46-1.68-.87-3.01-1.28-4.18-.39-1.13-.85-2.26-1.38-3.44l-.1-.21s0,0,0,0l-.09-.27s0,0,0,0l-.09-.19c-1.11-2.53-2.39-4.94-3.5-6.96-.67-1.23-1.36-2.37-2.11-3.44-.05-.07.04-.15.11-.1l.36.27c2.16,1.72,4.08,3.72,6.01,5.72l1.01,1.05c1.07,1.09,2.09,2.33,2.91,3.32l.57.69c1.08,1.27,2.12,2.57,3.15,3.87.69.93,1.34,1.87,2,2.82l.5.72c.88,1.28,1.76,2.55,2.7,3.78,1.17,1.55,2.49,3.31,4.03,4.78,1.18,1.11,2.21,2.43,3.31,3.85l.25.32c.76.99,1.55,2.06,2.22,3.2.03.06-.02.13-.09.11Z"/>
      <path class="cls-2" d="M131.78,44.67c-2.68.27-7.34-.28-9.02-.28s-6.13-.65-6.13-.65c0,0-.9-8.48-1.35-10.39-1.52-6.4-2.99-9.3-5.06-15.12-1.06-2.96-2.29-5.86-3.69-8.69-.34-.7-3.16-4.81-.8-4.19,5.35,1.41,14.58,9.5,14.58,9.5,0,0,3.53,7.06,5.57,12.08,1.87,4.59,3.15,6.79,4.11,9.87.98,3.18,1.8,7.86,1.8,7.86Z"/>
      <path class="cls-2" d="M129.33,64.46l-.05.91c-.02.4-.04.8-.06,1.2l-.03.6c-.05,1.26-.11,2.82-.24,4.3-.13,1.46-.29,2.91-.44,4.36l-.04.34c-.25,2.41-.51,4.91-.66,7.37-.03.56-.05,1.11-.07,1.66,0,.21,0,.43,0,.64h-.31s-.32-.03-.32-.03c-.9-.05-1.81-.1-2.71-.16-1.24-.08-2.48-.15-3.73-.21v-.62c0-.37-.02-.73-.04-1.09l-.05-.71c-.05-.71-.1-1.52-.1-2.32,0-2.25.07-4.44.19-6.5.05-.91.09-1.82.12-2.73v-.32c.05-1.01.1-2.02.17-3.03.04-.54.1-1.09.17-1.63.05-.5.1-.88.13-1.27.12-1.26.19-2.27.23-3.17.04-.98-.05-1.97-.12-2.84v-.19c-.1-1.04-.2-2.28-.39-3.44-.21-1.28-.44-2.53-.71-3.71,2.72.07,4.61.14,6.3.24l.89.05c.41,1.34.69,2.3.93,3.22.17.66.34,1.33.48,2,.11.55.2,1.1.28,1.65l.02.28c.09.95.17,1.86.19,2.76.02.79-.02,1.6-.06,2.37Z"/>
      <path class="cls-2" d="M117.32,62.46c-.05,1.2-.17,2.38-.31,3.7-.09.81-.18,1.62-.24,2.44-.06.85-.09,1.7-.11,2.55v.26s-.01.26-.01.26c-.02.84-.08,1.68-.13,2.52l-.03.55c-.15,2.54-.2,4.47-.16,6.26.01.71.05,1.42.1,2.12l.05.71c.02.29.03.57.04.86v.29s.02.46.02.46c-.18,0-.37,0-.55,0-.64,0-1.29.01-1.94.03-1.87.04-3.77.12-5.6.21h-.14s-.4.02-.4.02c0-.36,0-.72,0-1.09v-.66c.01-.95.02-1.9.02-2.85,0-1.6.03-3.95.14-6.38l.05-1.15c.03-.65.06-1.28.08-1.9,0-.71,0-1.41,0-2.12v-1.06s0-1.06,0-1.06c0-1.78,0-3.57-.04-5.36-.05-2.23-.2-4.27-.46-6.22l-.06-.46c-.12-.98-.25-1.98-.48-2.96l-.23-.96-.05-.19.2.04h.22c.52.04,1.03.06,1.54.09l.52.02c.34.01.68.03,1.02.05.43.02.85.05,1.28.08.64.05,1.28.09,1.91.11.8.03,1.61.06,2.41.1.36,1.54.68,3.13.95,4.74.25,2.13.45,4.05.37,5.96Z"/>
      <path class="cls-2" d="M104.03,68.26v3c0,.84-.05,1.68-.09,2.52v.25s-.04.43-.04.43c-.1,2.01-.12,4.01-.14,6.22-.01,1.08-.01,2.17-.01,3.26v.78s0,.78,0,.78c0,.11,0,.23,0,.34-.03,0-.05,0-.08,0-.95,0-1.81.04-2.64.1-1.58.12-3.15.23-4.72.32l.07-.76.04-.39c.09-.89.09-1.77.09-2.53,0-1.83,0-3.66-.03-5.48-.03-2.16-.1-3.98-.24-5.73-.14-1.78-.36-3.53-.64-5.61-.11-.82-.22-1.63-.33-2.44-.11-1.04-.22-2.08-.32-3.12l-.03-.33c-.1-1.09-.21-2.17-.2-3.24,0-1.25.03-2.5.06-3.75.02-.97.09-1.95.16-2.92,1.07.07,2.53.14,3.98.31.64.09,1.28.18,1.92.26l1.64.25c.46,1.81.8,3.4,1.03,4.85l.05.13h-.01s.01.27.01.27c.11.8.21,1.6.27,2.42.08,1.07.12,2.14.15,3.21.05,1.76.05,3.52.05,5.29v1.32Z"/>
      <path class="cls-2" d="M111.46,44.37c-3.01.07-4.08-.06-5.8-.03-2.22.04-9.01-.7-9.01-.7,0,0-1.02-4-1.06-7.03-.04-3.22-.28-6.43-.62-9.63-.7-6.54-1.87-13.01-2.82-19.51-.5-3.4.87-5.01,4.13-3.78,3.67,1.38,5.86,3.75,7.22,7.38,1.68,4.49,2.71,9.19,3.89,13.83.6,2.38,1.24,4.75,2.01,7.08.71,2.14,1.94,4.26,2.28,6.5.16,1.04,1.21,3.28,1.53,4.27.38,1.17-.22,1.55-1.75,1.62Z"/>
      <path class="cls-2" d="M93.36,43.45c-3.47.41-7.01.15-10.38-.75.18-6.97-.37-13.96-1.65-20.81-.46-2.46-.48-9.98-.6-12.64,0,0-.75-4.78-.75-4.78,1.11-.99,6.85-1.46,8.28-1.16,3.4.72,2.69,12.84,2.85,15.06.62,8.39,2.74,16.69,2.25,25.09Z"/>
      <path class="cls-2" d="M92.32,82.65c0,.72-.01,1.58-.09,2.46l-.04.39-.03.21-.02.17c-.02.2-.05.4-.06.6l-.92.02-.45.02c-3.13.15-6.37.3-9.55.37-.22,0-.43,0-.66.02,0-.15,0-.29,0-.43v-.7s-.01-1.53-.01-1.53c-.01-1.33-.04-2.88-.13-4.43l-.07-.97-.02-.28c-.03-.35-.05-.69-.07-1.04-.02-.42-.03-.83-.05-1.24-.01-.44-.03-.84-.05-1.24-.06-1.47-.21-3.08-.48-5.04-.13-1.16-.25-2.32-.36-3.47-.12-1.15-.15-2.38-.1-3.87.02-.73.07-1.46.12-2.18l.03-.56c.02-.36.04-.72.06-1.08.05-1.19.14-2.35.27-3.44.39-2.17.85-4.07,1.39-5.81.33,0,.69,0,1.05,0,.27,0,.55,0,.82,0h.41s.8.01.8.01c2.45.02,4.48.08,6.37.18h.28c-.15,1.91-.33,4.8-.24,7.75.03.92.12,1.84.22,2.86l.1,1.01c.13,1.33.31,2.65.49,3.97l.09.7.1.77.05.24.02.16c.21,1.76.37,3.34.48,4.82.14,1.78.17,3.59.19,5.35.02,1.77.02,3.51.02,5.24Z"/>
      <path class="cls-2" d="M76.33,85.77v.71s0,.33,0,.33v.32c-.53.01-1.09.05-1.64.1-1.58.14-3.16.26-4.74.38,0-.43-.03-.87-.05-1.3l-.03-.64c-.05-1.09-.15-2.16-.26-3.25-.17-1.66-.24-3.36-.3-5l-.04-1.15c-.05-1.02-.12-2.04-.2-3.06-.08-.99-.15-1.98-.2-2.97-.07-1.56-.07-3.15-.06-4.69v-.24s0-1.36,0-1.36v-1.07c0-1.24,0-2.49.01-3.73v-.35c.01-.63.03-1.26.07-1.88.06-.75.13-1.49.22-2.23.28-1.75.54-3.18.82-4.48.34,0,.66-.02.97-.04l.33-.02c.8-.04,1.59-.07,2.39-.11,1.03-.04,2.03-.08,3.03-.15-.38,1.27-.7,2.67-.96,4.16-.27,1.48-.35,2.99-.43,4.45l-.09,1.45c-.12,1.78-.22,3.69-.13,5.57.04.87.13,1.72.24,2.66.09.9.2,1.81.32,2.71.2,1.61.33,3.18.38,4.69.03.91.08,1.81.13,2.72l.02.41.09,1.44c.07,1.42.1,2.85.11,4.19v.71s0,.71,0,.71Z"/>
      <path class="cls-2" d="M79.99,42.59s-9.83,1.5-12.01.91c-.4-5.93.71-12.07,1.17-15.49.75-5.59,1.36-11.2,1.83-16.82.15-1.76-.24-5.46,1.03-6.42,0,0,0,0,0,0,1.24-.93,4.85-.67,5.81.57,1.42,1.83.41,8.03.5,10.34.29,7.67.82,15.32,1.59,22.95.09.94.06,3.96.06,3.96Z"/>
      <path class="cls-2" d="M65.76,87.93l-2.04.12c-2.81.19-5.33.37-7.84.61-.03-.34-.06-.67-.09-1.01-.05-.52-.1-1.05-.12-1.57-.03-.59-.03-1.17-.03-1.75v-.39c0-.26,0-.52-.01-.78-.03-1.04-.09-2.07-.15-3.11-.06-1.03-.12-2.06-.15-3.1-.02-1.06-.06-2.13-.12-3.19-.03-.5-.07-1-.12-1.5l-.02-.29c-.04-.45-.08-.89-.1-1.33l-.04-.65c-.05-.78-.1-1.56-.1-2.35,0-1.06,0-2.12,0-3.17,0-2.94.11-5.32.3-7.49.31-2.01.82-4.09,1.23-5.76l.04-.15c.61-.02,1.25-.07,1.88-.13,2.06-.2,4.26-.36,6.53-.47l.46-.02.39-.02c-.35,1.68-.63,3.47-.87,5.45-.11.88-.13,1.79-.14,2.67v.12s0,.3,0,.3c-.01,1.08-.02,2.17-.02,3.26,0,2.17,0,4.33,0,6.5,0,1.44.12,2.9.24,4.31.05.61.1,1.2.14,1.78.08,1.11.11,2.22.14,3.33.02.8.08,1.61.13,2.41l.02.27.06.89c.04.54.09,1.09.14,1.63.06.65.12,1.3.17,1.95.02.42.04.85.05,1.27v.35s.03.4.03.4v.3s.02.32.02.32Z"/>
      <path class="cls-2" d="M69.33,5.37l-6.27,38.14h-13.33s6.95-34.01,10.88-35.6c3.93-1.59,8.71-2.54,8.71-2.54Z"/>
      <path class="cls-2" d="M51.72,88.91c0,.09.01.17.03.25-3.14.48-6.37,1.21-9.86,2.23l-.15.05c-.09-.76-.16-1.52-.21-2.29-.03-.48-.08-.96-.12-1.44-.06-.57-.11-1.14-.14-1.72l-.05-.76-.02-.34c-.04-.65-.07-1.3-.09-1.95-.02-.77-.02-1.53-.01-2.29v-.91s0-2.31,0-2.31c0-3.35-.02-7.15.24-10.8.05-.74.13-1.48.22-2.21.05-.42.1-.83.14-1.25.11-1.04.22-2.08.35-3.12.25-1.36.61-2.74.94-3.97l.13-.48.42-1.63.16-.6c.17-.65.34-1.3.51-1.95,1.74-.07,3.53-.09,5.28-.12h.48s2.08-.04,2.08-.04c-.3,1.22-.69,2.91-.93,4.55-.35,2.4-.42,4.73-.45,6.7,0,1.08-.02,2.09-.02,3.1v.66s-.01.18-.01.18c0,.73,0,1.46.03,2.19.05.94.12,1.88.2,2.83l.03.47c.07,1,.15,1.99.19,2.99.03.68.05,1.36.06,2.04.01.59.03,1.16.05,1.72.02.52.06,1.04.09,1.56.05.7.1,1.35.12,2,.04,1.12.06,2.25.07,3.38,0,.68.07,1.37.13,2.04.05.49.08.87.11,1.25Z"/>
      <path class="cls-2" d="M39.82,51.76l-.52,1.86c-.24.96-.49,1.92-.75,2.87-.59,2.18-.82,4.51-1.02,6.56-.05.54-.1.97-.15,1.41-.07.61-.13,1.22-.19,1.83-.08.9-.13,1.85-.17,3.18-.06,2.25-.07,4.53-.08,6.74v1.88s-.01.18-.01.18c-.01,2.15-.03,4.37.1,6.56l.04.73c.02.44.05.87.08,1.29.03.37.06.74.1,1.11.04.37.07.74.1,1.11l.03.44c.07,1.01.15,2.15.37,3.23l-.81.24c-.82.27-1.65.53-2.47.79-1.2.38-2.4.76-3.58,1.18-.01-.02-.04-.08-.04-.08-.1-.17-.19-.35-.28-.53-.2-.53-.39-1.11-.55-1.72-.17-.61-.26-1.27-.35-1.85l-.09-.68c-.09-.68-.17-1.36-.24-2.04-.04-.35-.07-.7-.1-1.05l-.03-.37c-.04-.47-.08-.94-.12-1.41-.11-1.11-.18-2.06-.16-3.04.02-.85.09-1.79.21-2.96.11-.75.24-1.49.38-2.24.15-.83.3-1.66.42-2.49.26-1.93.33-3.82.39-5.76.05-1.73.13-3.47.21-5.2l.03-.52c.02-.35.03-.7.04-1.05l.02-.52.04-1.25c.04-.84.13-1.67.21-2.38.31-1.85.64-3.37,1.02-4.76,1.02-.22,1.86-.39,2.64-.51.41-.05.82-.1,1.23-.17l.34-.05.34-.05c.19-.02.3-.03.41-.05.72-.08,1.43-.2,2.15-.31l.31-.05.35-.05c.05,0,.1,0,.14-.02Z"/>
      <path class="cls-2" d="M55.36,10.02c-4.43,6.7-7.71,16.81-9.52,24.63-.43,1.88-.8,3.73-.89,5.65-.04.8.02,3.15-1.09,3.35-3.67.65-7.34,1.24-10.99,1.98,0,0-.02,0-.03,0-1.15.23-2.29.48-3.43.74-1,.23-2.19.72-3.21.72.16-.91.82-1.89,1.2-2.73.4-.89.79-1.79,1.13-2.7.67-1.81,1.39-3.66,2.43-5.25,1.19-1.8,2.69-3.39,3.97-5.13,2.55-3.48,5.01-7.03,7.82-10.32,2.58-3.01,2.78-4.49,6.97-8.07.78-.67,4.62-2.66,5.63-2.87Z"/>
      <path class="cls-2" d="M25.52,90.98c.29,2.39.76,4.12,1.52,5.61-.93.33-1.76.61-2.78.92-.11-.29-.27-.52-.46-.68-.13-.11-.25-.23-.36-.36-.28-.4-.51-.8-.71-1.21-.2-.53-.37-1.07-.54-1.61l-.09-.28-.15-.5c-.31-.99-.52-1.75-.67-2.48-.11-.47-.19-.95-.28-1.43-.06-.37-.13-.73-.2-1.1l-.17-.81-.04-.21c-.11-.53-.21-1.07-.3-1.6-.12-1.1-.16-2.23-.21-3.33v-.39c-.06-1.14-.02-2.31.02-3.43l.03-.93c.05-1.62-.21-3.29-.44-4.56l-.03-.15c-.22-1.23-.43-2.45-.61-3.68l-.06-.48c-.15-1.16-.3-2.35-.33-3.52-.03-1.34.04-2.7.22-4.15.12-.72.23-1.28.4-1.83.17-.56.35-1.12.53-1.67l.34-.14c2.18-.9,4.53-1.78,7.19-2.69-.19.73-.35,1.53-.53,2.6-.26,1.55-.32,3.19-.36,4.63-.01.45-.03.91-.05,1.37l-.06,1.21-.02.49c-.06,1.31-.12,2.62-.16,3.94-.06,1.96-.14,3.61-.3,5.24-.11.76-.25,1.51-.39,2.26l-.02.13c-.19,1.07-.39,2.17-.51,3.27-.1.93-.16,1.91-.19,2.91-.02,1,.08,2.07.17,2.92.05.52.09.93.12,1.35l.03.36c.03.36.06.71.1,1.07.07.67.15,1.33.24,2l.12.95Z"/>
      <path class="cls-2" d="M19.94,98.73c-.45.06-.93.15-1.41.22-.55.06-1.16.09-1.83.09s-1.3-.03-1.93-.1c-.48-.09-.96-.22-1.45-.4-.42-.2-.79-.42-1.15-.67-.45-.38-.88-.79-1.25-1.22-.42-.58-.78-1.22-1.12-1.96-.51-1.31-.87-2.65-1.09-4.08-.14-1.2-.2-2.47-.25-3.49l-.03-.59c-.04-.81-.1-1.61-.16-2.41l-.03-.38c-.05-.63-.09-1.25-.12-1.88l-.02-.46c-.04-.67-.07-1.34-.08-2.01,0-.72.02-1.45.04-2.17.05-1.88.12-3.41.22-4.84.29-1.99.74-3.72,1.35-5.29l.07-.17.07-.17c.38-.91.82-1.87,1.43-2.75,1.24-1.52,2.31-2.66,3.37-3.57l.11-.08.11-.07c-.27,1.78-.35,3.45-.26,5.1.1,1.73.36,3.53.58,4.98.11.71.23,1.42.36,2.13l.07.39c.1.58.2,1.15.29,1.73.12,1.18.16,2.1.13,2.97l-.03.81v.22c-.03.74-.06,1.48-.05,2.21.02,1.78.1,4.12.55,6.42l.04.2c.08.44.17.87.25,1.31.23,1.23.52,2.77.91,4.2.15.55.33,1.1.5,1.65l.06.19.31.96c.34,1.11.82,2.09,1.43,2.93Z"/>
      <path class="cls-3" d="M45.07,116.33c.46.2,1.12.27,1.58.04,1.28-.65,2.59-1.22,3.92-1.76.96-.39,1.93-.76,2.93-1.05.04.24.07.48.11.71.05.26.09.52.15.78.05.26.11.5.18.77.13.51.37.97.71,1.38.62.75,1.47,1.26,2.3,1.73.45.25,1.01.37,1.52.47.39.07.82.06,1.21.03.51-.05,1-.17,1.49-.32.85-.27,1.53-.76,2.14-1.39,1.12-1.16,1.4-2.97,1.15-4.51-.05-.28-.11-.57-.19-.85.21,0,.42,0,.62,0,.08,0,.15,0,.23,0-.07,0-.14,0-.21,0,1.32.04,2.65.02,3.96.2,1.2.16,2.37.49,3.55.8-.15-.04-.3-.09-.45-.13.01,0,.02,0,.03,0,.55.17,1.01.26,1.58.04.51-.19.93-.59,1.15-1.09.22-.5.23-1.07.04-1.58-.18-.45-.6-1-1.09-1.14-1.37-.41-2.77-.8-4.19-.99-.73-.1-1.48-.12-2.22-.14-.84-.02-1.68-.05-2.52-.06.06,0,.13,0,.19,0-.74-.02-1.49-.03-2.23-.03-.86,0-1.72.02-2.57.09-1.62.14-3.23.36-4.83.65-.76.13-1.51.3-2.26.47-.95.21-1.85.51-2.76.84-1.74.64-3.45,1.39-5.11,2.22-.51.26-.91.55-1.15,1.09-.22.5-.24,1.07-.04,1.58.2.51.59.93,1.09,1.15Z"/>
      <path class="cls-3" d="M127.1,104.62c.73.08,1.48.1,2.21.17,1,.09,1.99.24,2.97.47.98.23,1.87.61,2.69,1.14.61.18,1.22.35,1.83.53-.13-.04-.26-.08-.39-.12.13.04.25.07.38.1.56.15,1.02.35,1.37.84.31.43.45.98.37,1.51-.08.55-.39,1.05-.84,1.37-.39.29-1.02.5-1.51.37-.69-.18-1.37-.4-2.05-.61-1.2-.34-2.41-.66-3.62-.92-1.38-.3-2.8-.59-4.21-.68-.24,0-.48.04-.72.05.07.13.15.25.2.39.32.83.4,1.82.18,2.69-.17.69-.39,1.24-.78,1.83-.15.22-.31.41-.5.61-.21.2-.42.4-.64.59-.42.29-.91.58-1.44.61-1.03.06-2.06-.19-2.99-.64-.59-.29-1.15-.62-1.65-1.04-.35-.3-.74-.78-.9-1.21-.26-.71-.36-1.45-.4-2.2-.25.07-.51.14-.75.23-.8.28-1.59.57-2.36.92-1.8.83-3.56,1.71-5.33,2.6-.46.24-1.12.16-1.58-.04-.5-.22-.89-.64-1.09-1.14-.2-.51-.18-1.08.04-1.58.24-.54.64-.83,1.15-1.09,1.77-.89,3.54-1.77,5.33-2.6,2-.92,4.14-1.46,6.28-1.94,1.07-.24,2.16-.45,3.24-.65l5.52-.57Z"/>
    </g>
    <path class="cls-1" d="M22.4,51.64c.61-.23,1.23-.46,1.83-.65l-6.64,2.58c.53-.25,1.07-.46,1.61-.68l.13-.05.33-.13c.91-.36,1.83-.72,2.74-1.06Z"/>
    <path class="cls-3" d="M55.79,171.31l2.47,1.93c-.84-.63-1.67-1.27-2.47-1.93Z"/>
    <path class="cls-3" d="M66.49,178.56c-.63-.35-1.26-.7-1.88-1.07-.35-.21-.69-.42-1-.65l2.87,1.72Z"/>
    <path class="cls-3" d="M126.78,168.17c-.14.16-.28.31-.43.46l-.83.9c-1.04,1.12-2.12,2.28-3.28,3.31l-.2.17-.4.32,5.15-5.17Z"/>
    <path class="cls-3" d="M147.71,156.05c5.98-2.84,11.31-1.91,17.73-2.31,4.4-.27,7.76-2,7.61-7.46-.1-3.56-.2-7.12-.29-10.68-.18-6.51-.36-13.02-.53-19.54-.12-4.29.14-8.65-1.03-12.73-1.31-4.59-3.44-8.87-5.85-12.97.53-.45.97-.91,1.32-1.41.47-.66.83-1.39,1.19-2.14.35-.72.75-1.53.97-2.39.22-.86.31-1.76.4-2.63l.04-.4c.06-.59.11-1.18.15-1.78l.02-.31.03-.48c.1-1.37.18-2.99.04-4.66-.09-1.07-.29-2.17-.47-3.14-.1-.57-.2-1.15-.29-1.72-.07-.55-.15-1.09-.23-1.63l-.07-.52c-.07-.57-.15-1.13-.22-1.69-.31-2.53-.57-4.35-.87-6.03-.26-1.45-.81-2.8-1.63-4.01-.36-.53-.73-1-1.13-1.45-.44-.49-.99-.89-1.51-1.24,0,0-21.26-29.02-29.65-34.09,0,0-12.89-14.94-32.13-17.8-19.25-2.87-50.13,1.08-64.63,18.85-10.76,13.19-16.87,27.5-19.3,34l-5.17,3.36c-.49.37-.92.73-1.3,1.1-.75.73-1.44,1.5-2.19,2.35-.61.7-1.39,1.63-1.91,2.72-.3.64-.59,1.29-.87,1.94l-.08.18-.04.13c-.73,1.79-1.25,3.67-1.58,5.74-.18,1.14-.24,2.32-.29,3.45v.27c-.06,1.04-.09,2.07-.1,3.11-.05,2.39.11,4.71.26,6.46.06.83.11,1.66.14,2.49.06,1.3.12,2.56.28,3.8.11.88.31,2.2.68,3.48.31,1.04.73,2.11,1.26,3.17.45.88,1.06,1.75,1.83,2.56.2.21.41.42.63.61-1.09-.98-7.14,11.31-7.45,12.31-1.61,5.11-1.95,10.63-.87,15.88,1.34,6.56,4.78,12.96,3.7,19.56-.27,1.62-.8,3.22-.71,4.85.22,4.03,5.51,5.65,8.86,5.78,4.51.17,8.9-1.61,13.17-2.8,4.23-1.18,10.1-1.06,13.67-3.72,1.84,4.22,5.91,8.44,9.66,12.11-1.47,1.14-2.93,2.29-4.38,3.45-1.71,1.37-3.35,2.8-4.83,4.4-.71.75-1.46,1.5-2.17,2.26-.77.84-1.53,1.69-2.28,2.51-.68.77-1.37,1.55-2.05,2.35-.71.8-1.44,1.6-2.12,2.44-2.89,3.58-5.63,7.38-7.68,11.53-1,2.01-2.05,4.01-3.1,5.99-1.05,2.03-2.03,4.08-2.92,6.2-.89,2.1-1.71,4.24-2.44,6.38-.71,2.14-1.25,4.33-1.85,6.5-.57,2.05-1,4.15-1.39,6.24-.23,1.3-.43,2.62-.48,3.92-.07,1.23.16,2.51.52,3.69.39,1.34,1.09,2.51,1.98,3.58.75.91,1.78,1.66,2.71,2.37.84.62,1.71,1.23,2.6,1.75,1.07.62,2.19,1.09,3.33,1.55,2.14.82,4.4,1.32,6.65,1.71,1.25.21,2.53.36,3.83.41,1.07.05,2.19.02,3.26,0,2.35-.05,4.67-.07,7.02-.09,2.23-.02,4.44-.16,6.68-.39,2.46-.27,4.95-.39,7.41-.59,2.32-.21,4.67-.32,7.02-.36,2.3-.05,4.63-.07,6.95-.09,2.53-.05,5.06-.16,7.59-.27,2.23-.09,4.47-.11,6.72,0,2.51.11,5.01.27,7.54.43,4.65.32,9.32.27,13.99.27,2.32.02,4.63.02,6.95.02,2.32-.02,4.65-.21,7-.3,4.72-.18,9.46-.18,14.18-.18,2.42,0,4.83-.11,7.22-.32,2.3-.21,4.6-.52,6.91-.75.84-.09,1.71-.23,2.55-.34,1.12-.14,2.26-.3,3.37-.52,1.07-.23,2.12-.55,3.17-.84,2.3-.66,4.49-1.64,6.34-3.19.89-.77,1.62-1.78,2.26-2.76.64-.93,1.14-2.05,1.57-3.1.36-.96.73-1.89.91-2.89.23-1.23.34-2.48.41-3.71.16-2.39,0-4.76-.34-7.13-.32-2.23-.75-4.42-1.37-6.59-.66-2.23-1.37-4.44-2.23-6.59-.91-2.26-1.91-4.49-2.92-6.7-.93-2.03-2.05-3.99-3.15-5.95-1.09-1.98-2.35-3.81-3.67-5.63-1.41-1.94-2.92-3.81-4.54-5.58-.77-.84-1.66-1.64-2.51-2.44-.8-.77-1.62-1.53-2.44-2.26-.57-.52-1.12-1.07-1.69-1.6-.62-.57-1.28-1.12-1.91-1.66-1.25-1.05-2.37-2.23-3.69-3.19-1.3-.93-2.67-1.8-4.03-2.62-.42-.26-1.42-2.92-2.17-4.57,3.32-3.46,10.09-3.24,14.42-5.31ZM153.51,54.06c.7.14,1.39.28,2.09.4,1.45.26,2.72.6,3.87,1.05.64.31,1.2.63,1.72.99.26.23.49.48.72.75.4.55.72,1.1,1,1.66.33.94.49,1.95.62,2.83l.15.97.06.39c.04.26.08.52.12.77,0,0,0,.05,0,.06,0,0,.01.06.01.06h.03s0,.12,0,.12l.08.83.07.57c.05.41.1.82.16,1.23.07.59.15,1.17.24,1.76l.16,1.11c.1.71.21,1.36.33,2.01.11.65.22,1.3.32,1.95.07.61.12,1.22.16,1.84.03.58,0,1.19-.03,1.72l-.02.52c-.06,1.36-.17,2.73-.35,4.47-.11.63-.23,1.3-.46,1.96-.33.74-.78,1.7-1.37,2.56-.39.44-.84.83-1.27,1.17-.35.25-.71.46-1.09.65-.32.11-.64.18-.98.25-.49.05-1.03.07-1.68.07-.42,0-.85,0-1.27-.02-.72-.01-1.33-.03-1.94-.05.16-.4.29-.84.4-1.29.11-.44.2-.89.29-1.34l.14-.67c.17-.8.33-1.61.45-2.43.12-.77.26-1.74.27-2.69,0-.73-.05-1.46-.15-2.26-.08-.59-.19-1.18-.3-1.76-.06-.31-.11-.63-.17-.94-.12-.67-.23-1.34-.33-2-.2-1.63-.35-3.28-.46-5.04-.04-.61-.11-1.21-.18-1.81l-.1-.88c-.08-.88-.14-1.77-.18-2.65-.09-1.96-.29-3.82-.6-5.69-.05-.3-.1-.6-.15-.9-.12-.6-.36-1.17-.6-1.69-.12-.27-.26-.54-.39-.8l.6.16ZM123.85,14.88l.36.27c2.16,1.72,4.08,3.72,6.01,5.72l1.01,1.05c1.07,1.09,2.09,2.33,2.91,3.32l.57.69c1.08,1.27,2.12,2.57,3.15,3.87.69.93,1.34,1.87,2,2.82l.5.72c.88,1.28,1.76,2.55,2.7,3.78,1.17,1.55,2.49,3.31,4.03,4.78,1.18,1.11,2.21,2.43,3.31,3.85l.25.32c.76.99,1.55,2.06,2.22,3.2.03.06-.02.13-.09.11-.48-.14-.97-.26-1.46-.39-1.94-.48-3.9-.83-5.21-1.05-1.61-.27-3.21-.59-4.81-.91l-.59-.11c-1.84-.36-3.68-.72-5.53-1.02l-.34-.06s0,0,0,0h-.23s-.08-.05-.07-.09c.05-.45.02-.93-.13-1.76-.1-.5-.19-.99-.27-1.48,0,0,0,0,0,0-.16-1.47-.35-3.04-.69-4.56-.24-1.06-.53-2.1-.86-3.24l-.29-1.02c-.46-1.68-.87-3.01-1.28-4.18-.39-1.13-.85-2.26-1.38-3.44l-.1-.21s0,0,0,0l-.09-.27s0,0,0,0l-.09-.19c-1.11-2.53-2.39-4.94-3.5-6.96-.67-1.23-1.36-2.37-2.11-3.44-.05-.07.04-.15.11-.1ZM142,79.1v-.14c-.05-.81-.1-1.65-.09-2.47,0-2.14.02-4.34.13-6.5.02-.37.04-.75.07-1.12l.03-.38c.04-.52.07-1,.1-1.48.03-.6.05-1.21.06-1.81l.02-.5c.01-.34.02-.68.04-1.02.07-1.68.11-3.66-.08-5.71-.13-1.3-.28-2.37-.47-3.36-.12-.6-.27-1.23-.48-1.93l1.76.21,1,.11.46.05c.96.11,1.93.19,2.9.27l.37.03c.61,1.03,1.27,2.14,1.82,3.29.28.81.41,1.68.52,2.45l.05.32c.15,1.33.23,2.75.29,3.88l.03.52c.04.76.12,1.51.19,2.27l.02.25.03.29c.07.68.14,1.36.18,2.04.11,1.75.27,3.37.48,4.96.13,1.01.31,2.03.49,3.01l.02.13.04.22c.09.49.17.97.26,1.46.12,1.11.13,2.21.01,3.24-.25,1.63-.53,3.07-.85,4.39-.16.66-.36,1.31-.56,1.96l-.11.36-.66-.08-.69-.08c-1.08-.11-2.16-.24-3.24-.38l-.87-.15c-.72-.12-1.44-.25-2.16-.35-.62-.09-1.24-.17-1.86-.24.13-.35.24-.77.35-1.34.22-1.1.41-2.18.46-3.27.06-1.16-.01-2.36-.07-3.42ZM137.83,78.96c.06,1.04.13,2.23.08,3.36-.02.41-.06.8-.11,1.2-.16,1.05-.4,2.09-.75,3.17l-.53-.05-.43-.04c-.95-.1-1.9-.19-2.85-.31-.44-.05-.88-.1-1.32-.14.03-.19.03-.41.03-.63,0-.3,0-.6,0-.9.04-.96.1-1.92.18-2.87.08-.88.16-1.75.24-2.63l.06-.65c.09-.89.17-1.78.25-2.68.06-.7.13-1.41.2-2.11l.04-.42.03-.27c.12-1.11.23-2.23.3-3.35.07-1.14.12-2.29.17-3.44.04-.99.08-1.95.14-2.91.05-.86-.02-1.73-.07-2.57l-.04-.52c-.09-1.4-.22-2.45-.42-3.4-.29-1.38-.66-2.84-1.14-4.46l.79.07c.71.04,1.42.04,2.13.05h.91c.37,0,.73.02,1.09.03l.09.13h-.01c.33.98.59,1.94.77,2.67.16.63.24,1.29.31,1.82.21,2.16.27,4.26.17,6.42-.01.34-.03.68-.04,1.02l-.02.5v.44c-.03.44-.04.88-.06,1.32-.03.66-.08,1.33-.12,2l-.07,1.11c-.11,1.84-.12,3.73-.13,5.55v.24s0,.62,0,.62c0,.9.05,1.85.1,2.61ZM105.72,5.37c5.35,1.41,14.58,9.5,14.58,9.5,0,0,3.53,7.06,5.57,12.08,1.87,4.59,3.15,6.79,4.11,9.87.98,3.18,1.8,7.86,1.8,7.86-2.68.27-7.34-.28-9.02-.28s-6.13-.65-6.13-.65c0,0-.9-8.48-1.35-10.39-1.52-6.4-2.99-9.3-5.06-15.12-1.06-2.96-2.29-5.86-3.69-8.69-.34-.7-3.16-4.81-.8-4.19ZM120.64,83.73l-.05-.71c-.05-.71-.1-1.52-.1-2.32,0-2.25.07-4.44.19-6.5.05-.91.09-1.82.12-2.73v-.32c.05-1.01.1-2.02.17-3.03.04-.54.1-1.09.17-1.63.05-.5.1-.88.13-1.27.12-1.26.19-2.27.23-3.17.04-.98-.05-1.97-.12-2.84v-.19c-.1-1.04-.2-2.28-.39-3.44-.21-1.28-.44-2.53-.71-3.71,2.72.07,4.61.14,6.3.24l.89.05c.41,1.34.69,2.3.93,3.22.17.66.34,1.33.48,2,.11.55.2,1.1.28,1.65l.02.28c.09.95.17,1.86.19,2.76.02.79-.02,1.6-.06,2.37l-.05.91c-.02.4-.04.8-.06,1.2l-.03.6c-.05,1.26-.11,2.82-.24,4.3-.13,1.46-.29,2.91-.44,4.36l-.04.34c-.25,2.41-.51,4.91-.66,7.37-.03.56-.05,1.11-.07,1.66,0,.21,0,.43,0,.64h-.31s-.32-.03-.32-.03c-.9-.05-1.81-.1-2.71-.16-1.24-.08-2.48-.15-3.73-.21v-.62c0-.37-.02-.73-.04-1.09ZM116.32,80.98c.01.71.05,1.42.1,2.12l.05.71c.02.29.03.57.04.86v.29s.02.46.02.46c-.18,0-.37,0-.55,0-.64,0-1.29.01-1.94.03-1.87.04-3.77.12-5.6.21h-.14s-.4.02-.4.02c0-.36,0-.72,0-1.09v-.66c.01-.95.02-1.9.02-2.85,0-1.6.03-3.95.14-6.38l.05-1.15c.03-.65.06-1.28.08-1.9,0-.71,0-1.41,0-2.12v-1.06s0-1.06,0-1.06c0-1.78,0-3.57-.04-5.36-.05-2.23-.2-4.27-.46-6.22l-.06-.46c-.12-.98-.25-1.98-.48-2.96l-.23-.96-.05-.19.2.04h.22c.52.04,1.03.06,1.54.09l.52.02c.34.01.68.03,1.02.05.43.02.85.05,1.28.08.64.05,1.28.09,1.91.11.8.03,1.61.06,2.41.1.36,1.54.68,3.13.95,4.74.25,2.13.45,4.05.37,5.96-.05,1.2-.17,2.38-.31,3.7-.09.81-.18,1.62-.24,2.44-.06.85-.09,1.7-.11,2.55v.26s-.01.26-.01.26c-.02.84-.08,1.68-.13,2.52l-.03.55c-.15,2.54-.2,4.47-.16,6.26ZM96.28,3.69c3.67,1.38,5.86,3.75,7.22,7.38,1.68,4.49,2.71,9.19,3.89,13.83.6,2.38,1.24,4.75,2.01,7.08.71,2.14,1.94,4.26,2.28,6.5.16,1.04,1.21,3.28,1.53,4.27.38,1.17-.22,1.55-1.75,1.62-3.01.07-4.08-.06-5.8-.03-2.22.04-9.01-.7-9.01-.7,0,0-1.02-4-1.06-7.03-.04-3.22-.28-6.43-.62-9.63-.7-6.54-1.87-13.01-2.82-19.51-.5-3.4.87-5.01,4.13-3.78ZM103.75,85.84s-.05,0-.08,0c-.95,0-1.81.04-2.64.1-1.58.12-3.15.23-4.72.32l.07-.76.04-.39c.09-.89.09-1.77.09-2.53,0-1.83,0-3.66-.03-5.48-.03-2.16-.1-3.98-.24-5.73-.14-1.78-.36-3.53-.64-5.61-.11-.82-.22-1.63-.33-2.44-.11-1.04-.22-2.08-.32-3.12l-.03-.33c-.1-1.09-.21-2.17-.2-3.24,0-1.25.03-2.5.06-3.75.02-.97.09-1.95.16-2.92,1.07.07,2.53.14,3.98.31.64.09,1.28.18,1.92.26l1.64.25c.46,1.81.8,3.4,1.03,4.85l.05.13h-.01s.01.27.01.27c.11.8.21,1.6.27,2.42.08,1.07.12,2.14.15,3.21.05,1.76.05,3.52.05,5.29v1.32s0,3,0,3c0,.84-.05,1.68-.09,2.52v.25s-.04.43-.04.43c-.1,2.01-.12,4.01-.14,6.22-.01,1.08-.01,2.17-.01,3.26v.78s0,.78,0,.78c0,.11,0,.23,0,.34ZM79.99,4.46s.03-.02.04-.03c1.24-.94,8.34-.46,8.85.88,1.29,3.34,2.07,10.83,2.23,13.05.62,8.39,2.74,16.69,2.25,25.09-3.47.41-7.01.15-10.38-.75.18-6.97.71-13.87-.57-20.72-.45-2.44-1.54-9.96-1.68-12.67,0-.02,0-.04,0-.06,0-.02,0-.05-.01-.07,0-.01,0-.02,0-.03,0,0,0,0,0,0,0-.01,0-.02,0-.03,0-.02,0-.05-.01-.07,0-.02,0-.03,0-.05,0,0,0,0,0,0,0-.01,0-.03,0-.04,0,0,0,0,0-.01,0-.03,0-.06-.01-.1,0-.02,0-.04,0-.06-.01-.09-.03-.18-.04-.28,0-.02,0-.05-.01-.07-.03-.18-.06-.36-.08-.54,0-.03-.01-.07-.02-.1-.02-.15-.05-.29-.07-.43,0-.02,0-.04,0-.05,0-.04-.01-.07-.02-.11,0-.02,0-.05-.01-.07,0-.03,0-.06-.01-.09,0,0,0,0,0,0,0-.03,0-.07-.02-.1,0-.02,0-.04,0-.06,0-.04-.01-.07-.02-.11,0-.04-.01-.07-.02-.11,0-.04-.01-.07-.02-.1,0-.02,0-.04,0-.06,0-.02,0-.04,0-.05,0-.04-.01-.07-.02-.11,0-.02,0-.04,0-.05,0-.06-.02-.11-.03-.17,0-.02,0-.03,0-.05,0-.04-.01-.07-.02-.11,0-.03-.01-.07-.02-.1-.01-.09-.03-.17-.04-.25,0-.03,0-.05-.01-.08,0,0,0-.01,0-.02,0-.02,0-.03,0-.05,0-.03,0-.06-.01-.09,0-.01,0-.03,0-.04,0-.03,0-.06-.01-.09,0-.04-.01-.08-.02-.12,0-.03,0-.05-.01-.08,0-.01,0-.02,0-.04,0-.04-.01-.07-.02-.11,0-.03-.01-.07-.01-.1,0,0,0,0,0,0,0-.03,0-.06-.01-.08,0,0,0-.02,0-.03,0,0,0-.02,0-.03,0-.01,0-.03,0-.04,0-.02,0-.04,0-.06h0s0-.03,0-.04h0s0-.01,0-.02c0,0,0-.01,0-.02,0,0,0-.01,0-.02h0ZM80.51,85.77v-1.53c-.02-1.33-.05-2.88-.14-4.43l-.07-.97-.02-.28c-.03-.35-.05-.69-.07-1.04-.02-.42-.03-.83-.05-1.24-.01-.44-.03-.84-.05-1.24-.06-1.47-.21-3.08-.48-5.04-.13-1.16-.25-2.32-.36-3.47-.12-1.15-.15-2.38-.1-3.87.02-.73.07-1.46.12-2.18l.03-.56c.02-.36.04-.72.06-1.08.05-1.19.14-2.35.27-3.44.39-2.17.85-4.07,1.39-5.81.33,0,.69,0,1.05,0,.27,0,.55,0,.82,0h.41s.8.01.8.01c2.45.02,4.48.08,6.37.18h.28c-.15,1.91-.33,4.8-.24,7.75.03.92.12,1.84.22,2.86l.1,1.01c.13,1.33.31,2.65.49,3.97l.09.7.1.77.05.24.02.16c.21,1.76.37,3.34.48,4.82.14,1.78.17,3.59.19,5.35.02,1.77.02,3.51.02,5.24,0,.72-.01,1.58-.09,2.46l-.04.39-.03.21-.02.17c-.02.2-.05.4-.06.6l-.92.02-.45.02c-3.13.15-6.37.3-9.55.37-.22,0-.43,0-.66.02,0-.15,0-.29,0-.43v-.7ZM72.02,4.77s0,0,0,0c1.24-.93,4.85-.67,5.81.57,1.42,1.83.41,8.03.5,10.34.29,7.67.82,15.32,1.59,22.95.09.94.06,3.96.06,3.96,0,0-9.83,1.5-12.01.91-.4-5.93.71-12.07,1.17-15.49.75-5.59,1.36-11.2,1.83-16.82.15-1.76-.24-5.46,1.03-6.42ZM75.03,65.53c.04.87.13,1.72.24,2.66.09.9.2,1.81.32,2.71.2,1.61.33,3.18.38,4.69.03.91.08,1.81.13,2.72l.02.41.09,1.44c.07,1.42.1,2.85.11,4.19v.71s0,.71,0,.71v.71s0,.33,0,.33v.32c-.53.01-1.09.05-1.64.1-1.58.14-3.16.26-4.74.38,0-.43-.03-.87-.05-1.3l-.03-.64c-.05-1.09-.15-2.16-.26-3.25-.17-1.66-.24-3.36-.3-5l-.04-1.15c-.05-1.02-.12-2.04-.2-3.06-.08-.99-.15-1.98-.2-2.97-.07-1.56-.07-3.15-.06-4.69v-.24s0-1.36,0-1.36v-1.07c0-1.24,0-2.49.01-3.73v-.35c.01-.63.03-1.26.07-1.88.06-.75.13-1.49.22-2.23.28-1.75.54-3.18.82-4.48.34,0,.66-.02.97-.04l.33-.02c.8-.04,1.59-.07,2.39-.11,1.03-.04,2.03-.08,3.03-.15-.38,1.27-.7,2.67-.96,4.16-.27,1.48-.35,2.99-.43,4.45l-.09,1.45c-.12,1.78-.22,3.69-.13,5.57ZM60.62,7.9c3.93-1.59,8.71-2.54,8.71-2.54l-6.27,38.14h-13.33s6.95-34.01,10.88-35.6ZM64.63,68.72c0,1.44.12,2.9.24,4.31.05.61.1,1.2.14,1.78.08,1.11.11,2.22.14,3.33.02.8.08,1.61.13,2.41l.02.27.06.89c.04.54.09,1.09.14,1.63.06.65.12,1.3.17,1.95.02.42.04.85.05,1.27v.35s.03.4.03.4v.3s.02.32.02.32l-2.04.12c-2.81.19-5.33.37-7.84.61-.03-.34-.06-.67-.09-1.01-.05-.52-.1-1.05-.12-1.57-.03-.59-.03-1.17-.03-1.75v-.39c0-.26,0-.52-.01-.78-.03-1.04-.09-2.07-.15-3.11-.06-1.03-.12-2.06-.15-3.1-.02-1.06-.06-2.13-.12-3.19-.03-.5-.07-1-.12-1.5l-.02-.29c-.04-.45-.08-.89-.1-1.33l-.04-.65c-.05-.78-.1-1.56-.1-2.35,0-1.06,0-2.12,0-3.17,0-2.94.11-5.32.3-7.49.31-2.01.82-4.09,1.23-5.76l.04-.15c.61-.02,1.25-.07,1.88-.13,2.06-.2,4.26-.36,6.53-.47l.46-.02.39-.02c-.35,1.68-.63,3.47-.87,5.45-.11.88-.13,1.79-.14,2.67v.12s0,.3,0,.3c-.01,1.08-.02,2.17-.02,3.26,0,2.17,0,4.33,0,6.5ZM50.66,68.64c.05.94.12,1.88.2,2.83l.03.47c.07,1,.15,1.99.19,2.99.03.68.05,1.36.06,2.04.01.59.03,1.16.05,1.72.02.52.06,1.04.09,1.56.05.7.1,1.35.12,2,.04,1.12.06,2.25.07,3.38,0,.68.07,1.37.13,2.04.05.49.08.87.11,1.25,0,.09.01.17.03.25-3.14.48-6.37,1.21-9.86,2.23l-.15.05c-.09-.76-.16-1.52-.21-2.29-.03-.48-.08-.96-.12-1.44-.06-.57-.11-1.14-.14-1.72l-.05-.76-.02-.34c-.04-.65-.07-1.3-.09-1.95-.02-.77-.02-1.53-.01-2.29v-.91s0-2.31,0-2.31c0-3.35-.02-7.15.24-10.8.05-.74.13-1.48.22-2.21.05-.42.1-.83.14-1.25.11-1.04.22-2.08.35-3.12.25-1.36.61-2.74.94-3.97l.13-.48.42-1.63.16-.6c.17-.65.34-1.3.51-1.95,1.74-.07,3.53-.09,5.28-.12h.48s2.08-.04,2.08-.04c-.3,1.22-.69,2.91-.93,4.55-.35,2.4-.42,4.73-.45,6.7,0,1.08-.02,2.09-.02,3.1v.66s-.01.18-.01.18c0,.73,0,1.46.03,2.19ZM27.4,44.36c.4-.89.79-1.79,1.13-2.7.67-1.81,1.39-3.66,2.43-5.25,1.19-1.8,2.69-3.39,3.97-5.13,2.55-3.48,5.01-7.03,7.82-10.32,2.58-3.01,2.78-4.49,6.97-8.07.78-.67,4.62-2.66,5.63-2.87-4.43,6.7-7.71,16.81-9.52,24.63-.43,1.88-.8,3.73-.89,5.65-.04.8.02,3.15-1.09,3.35-3.67.65-7.34,1.24-10.99,1.98,0,0-.02,0-.03,0-1.15.23-2.29.48-3.43.74-1,.23-2.19.72-3.21.72.16-.91.82-1.89,1.2-2.73ZM37.03,84.82l.04.73c.02.44.05.87.08,1.29.03.37.06.74.1,1.11.04.37.07.74.1,1.11l.03.44c.07,1.01.15,2.15.37,3.23l-.81.24c-.82.27-1.65.53-2.47.79-1.2.38-2.4.76-3.58,1.18-.01-.02-.04-.08-.04-.08-.1-.17-.19-.35-.28-.53-.2-.53-.39-1.11-.55-1.72-.17-.61-.26-1.27-.35-1.85l-.09-.68c-.09-.68-.17-1.36-.24-2.04-.04-.35-.07-.7-.1-1.05l-.03-.37c-.04-.47-.08-.94-.12-1.41-.11-1.11-.18-2.06-.16-3.04.02-.85.09-1.79.21-2.96.11-.75.24-1.49.38-2.24.15-.83.3-1.66.42-2.49.26-1.93.33-3.82.39-5.76.05-1.73.13-3.47.21-5.2l.03-.52c.02-.35.03-.7.04-1.05l.02-.52.04-1.25c.04-.84.13-1.67.21-2.38.31-1.85.64-3.37,1.02-4.76,1.02-.22,1.86-.39,2.64-.51.41-.05.82-.1,1.23-.17l.34-.05.34-.05c.19-.02.3-.03.41-.05.72-.08,1.43-.2,2.15-.31l.31-.05.35-.05c.05,0,.1,0,.14-.02l-.52,1.86c-.24.96-.49,1.92-.75,2.87-.59,2.18-.82,4.51-1.02,6.56-.05.54-.1.97-.15,1.41-.07.61-.13,1.22-.19,1.83-.08.9-.13,1.85-.17,3.18-.06,2.25-.07,4.53-.08,6.74v1.88s-.01.18-.01.18c-.01,2.15-.03,4.37.1,6.56ZM18.53,98.95c-.55.06-1.16.09-1.83.09s-1.3-.03-1.93-.1c-.48-.09-.96-.22-1.45-.4-.42-.2-.79-.42-1.15-.67-.45-.38-.88-.79-1.25-1.22-.42-.58-.78-1.22-1.12-1.96-.51-1.31-.87-2.65-1.09-4.08-.14-1.2-.2-2.47-.25-3.49l-.03-.59c-.04-.81-.1-1.61-.16-2.41l-.03-.38c-.05-.63-.09-1.25-.12-1.88l-.02-.46c-.04-.67-.07-1.34-.08-2.01,0-.72.02-1.45.04-2.17.05-1.88.12-3.41.22-4.84.29-1.99.74-3.72,1.35-5.29l.07-.17.07-.17c.38-.91.82-1.87,1.43-2.75,1.24-1.52,2.31-2.66,3.37-3.57l.11-.08.11-.07c-.27,1.78-.35,3.45-.26,5.1.1,1.73.36,3.53.58,4.98.11.71.23,1.42.36,2.13l.07.39c.1.58.2,1.15.29,1.73.12,1.18.16,2.1.13,2.97l-.03.81v.22c-.03.74-.06,1.48-.05,2.21.02,1.78.1,4.12.55,6.42l.04.2c.08.44.17.87.25,1.31.23,1.23.52,2.77.91,4.2.15.55.33,1.1.5,1.65l.06.19.31.96c.34,1.11.82,2.09,1.43,2.93-.45.06-.93.15-1.41.22ZM23.45,96.48c-.28-.4-.51-.8-.71-1.21-.2-.53-.37-1.07-.54-1.61l-.09-.28-.15-.5c-.31-.99-.52-1.75-.67-2.48-.11-.47-.19-.95-.28-1.43-.06-.37-.13-.73-.2-1.1l-.17-.81-.04-.21c-.11-.53-.21-1.07-.3-1.6-.12-1.1-.16-2.23-.21-3.33v-.39c-.06-1.14-.02-2.31.02-3.43l.03-.93c.05-1.62-.21-3.29-.44-4.56l-.03-.15c-.22-1.23-.43-2.45-.61-3.68l-.06-.48c-.15-1.16-.3-2.35-.33-3.52-.03-1.34.04-2.7.22-4.15.12-.72.23-1.28.4-1.83.17-.56.35-1.12.53-1.67l.34-.14c2.18-.9,4.53-1.78,7.19-2.69-.19.73-.35,1.53-.53,2.6-.26,1.55-.32,3.19-.36,4.63-.01.45-.03.91-.05,1.37l-.06,1.21-.02.49c-.06,1.31-.12,2.62-.16,3.94-.06,1.96-.14,3.61-.3,5.24-.11.76-.25,1.51-.39,2.26l-.02.13c-.19,1.07-.39,2.17-.51,3.27-.1.93-.16,1.91-.19,2.91-.02,1,.08,2.07.17,2.92.05.52.09.93.12,1.35l.03.36c.03.36.06.71.1,1.07.07.67.15,1.33.24,2l.12.95c.29,2.39.76,4.12,1.52,5.61-.93.33-1.76.61-2.78.92-.11-.29-.27-.52-.46-.68-.13-.11-.25-.23-.36-.36ZM41.35,150.63l-.27-.4c-.45-.66-.9-1.32-1.36-1.97l-.22-.3c-.54-.75-1.22-1.69-1.75-2.64-.14-.25-.27-.5-.4-.75-.45-.88-.86-1.77-1.24-2.62-.25-.6-.47-1.2-.7-1.81l-.07-.18c-.31-.84-.62-1.67-.97-2.49-.31-.75-.63-1.49-.96-2.23-.24-.57-.47-1.13-.71-1.7l-.32-.76-.32-.76-.43-1.05c-.33-.79-.65-1.58-.99-2.36-.24-.59-.49-1.17-.74-1.76-.73-1.82-1.31-3.5-1.77-5.15-.35-1.26-.65-2.56-.94-3.82l-.07-.3c-.15-.68-.31-1.36-.47-2.04-.59-2.45-1.11-4.99-1.6-7.38-.33-1.59-.66-3.18-1-4.77l-.16-.7c-.06-.28-.13-.53-.11-.82,5.58-1.42,10.99-4.13,16.65-5.62,6.05-1.59,12.22-2.72,18.42-3.55,12.7-1.69,25.52-2.1,38.3-2.49,18.73-.56,37.69-1.11,56,2.92-1.28,18.26-6.51,36.22-15.21,52.32-5.25,9.71-11.88,18.88-20.67,25.56-10.62,8.06-23.13,10.76-36.22,9.21-1.47-.24-3.04-.55-4.55-1.13-3.13-1.48-6.22-3.2-8.87-4.7-1.56-.89-3.1-1.86-4.57-2.88-1.22-.85-2.65-1.85-4.04-2.91-6.63-5.03-12.96-11.1-17.7-18.02ZM34.74,184.68c.71-.82,1.44-1.62,2.14-2.44,1.39-1.62,2.85-3.21,4.33-4.79,1.46-1.57,2.92-3.15,4.56-4.54,1.73-1.48,3.51-2.92,5.31-4.31.37-.28.73-.57,1.1-.86.13.13.26.25.38.38.19.19.38.38.58.57.3.58.6,1.17.91,1.75.52,1.03,1.14,2.05,1.73,3.05,1.14,2.01,2.37,3.99,3.69,5.88,1.34,1.94,2.78,3.87,3.97,5.93.59,1.05,1.19,2.12,1.8,3.15.59,1.05,1.28,2.03,1.94,3.01.8,1.21,1.6,2.42,2.42,3.62.84,1.21,1.73,2.39,2.6,3.58,1.05,1.5,2.1,2.99,3.08,4.54,1.07,1.69,2.3,3.28,3.56,4.83,1.14,1.41,2.39,2.73,3.58,4.13,1.07,1.25,2.19,2.51,3.19,3.83.18.27.36.55.55.8-.75.05-1.5.09-2.26.11-1.19,0-2.37.05-3.56,0-2.48-.09-4.97-.18-7.43-.52-.57-.09-1.14-.23-1.71-.39-.62-.18-1.23-.43-1.85-.64-1.09-.39-2.19-.68-3.26-1.12-.21-.11-.41-.23-.59-.36,0-.14.02-.27.02-.39.21-.93.43-1.87.62-2.8.23-1.16.46-2.35.66-3.53.14-.93.32-1.85.34-2.8.02-.39-.02-.75-.07-1.14-.05-.52-.23-1-.43-1.48-.23-.48-.68-.91-1.14-1.14-.21-.09-.41-.18-.62-.27-.77-.39-1.53-.8-2.3-1.23-.87-.48-1.75-.89-2.64-1.34-1.8-.89-3.6-1.8-5.38-2.76-.82-.46-1.66-.91-2.51-1.32-.64-.3-1.28-.59-1.91-.89-.21-.09-.41-.18-.62-.27-.02,0-.02-.02-.05-.02-.14-.07-.27-.14-.41-.18-.02-.02-.05-.02-.05-.02-1.62-.8-3.21-1.66-4.88-2.42-.71-.32-1.46-.59-2.19-.87-.75-.27-1.46-.62-2.19-.93-.96-.46-1.91-.93-2.87-1.44-.48-.23-.93-.55-1.41-.82-.36-.23-.71-.46-1.07-.66.11-.16.23-.32.34-.46ZM89.17,236.14c0,.52-.02,1.05-.02,1.6-.8-.05-1.57-.09-2.35-.14-1.28-.07-2.53-.11-3.81-.14-1.16-.02-2.35.02-3.51.07-2.32.07-4.65.23-6.95.25-2.39.05-4.81.05-7.2.09-2.46.07-4.92.16-7.38.34-1.19.09-2.37.21-3.58.27-1.21.09-2.44.16-3.67.27-2.23.21-4.47.46-6.72.48-2.3.02-4.6.05-6.91.07-2.03.05-4.06.09-6.09-.11-1.3-.21-2.58-.46-3.85-.75-1.34-.3-2.64-.73-3.9-1.23-1.55-.71-2.96-1.6-4.35-2.6-.68-.57-1.37-1.14-1.96-1.82-.21-.32-.41-.66-.57-1.03-.25-.62-.41-1.25-.52-1.94-.05-.82,0-1.64.09-2.46.25-1.71.59-3.42.96-5.13.39-1.66.87-3.33,1.32-4.99.48-1.75.98-3.49,1.62-5.2.57-1.57,1.16-3.17,1.8-4.72.73-1.64,1.48-3.26,2.3-4.88.96-1.82,1.91-3.62,2.85-5.47.46-.89.89-1.78,1.37-2.64.46-.89,1-1.73,1.5-2.6.52-.84,1.09-1.66,1.66-2.48.11-.18.25-.36.36-.52.89.55,1.8,1.12,2.71,1.64.52.32,1.07.57,1.62.84.48.25.98.48,1.48.71,1,.48,2.01.93,3.05,1.32.8.32,1.57.62,2.37.96.93.46,1.85.96,2.78,1.41.39.21.8.43,1.21.62.14.07.27.11.41.16.14.09.3.16.46.23.02,0,.07.02.09.05.39.16.75.34,1.14.52,2.44,1.12,4.79,2.46,7.18,3.69,1.21.59,2.42,1.19,3.6,1.8.59.32,1.14.66,1.71.98.39.18.75.36,1.14.55,0,.66-.09,1.3-.21,1.96-.02.18-.07.39-.09.57-.18.98-.36,1.96-.57,2.94-.18.91-.41,1.82-.59,2.76-.16.91-.25,1.73-.02,2.67.23,1.05.96,1.82,1.78,2.46.48.39,1.07.64,1.64.89.48.21.98.41,1.48.59.82.27,1.66.5,2.46.77,1,.36,1.98.68,3.05.87,2.51.46,5.04.57,7.57.68.75.02,1.48.07,2.23.07.8,0,1.6-.02,2.39-.05,1.46-.02,2.92-.14,4.38-.27,0,.05.02.11.02.16.09.87.18,1.73.27,2.58.05.5.09,1,.14,1.5.07.57.11,1.12.18,1.66.21,1.98.39,3.99.46,5.97.02,1.05,0,2.1-.02,3.15ZM89.83,214.28c-.73-1.03-1.44-2.03-2.26-2.96-.82-.96-1.6-1.94-2.42-2.87-1.69-1.89-3.37-3.78-4.85-5.83-.98-1.37-1.85-2.8-2.8-4.17-1.12-1.6-2.23-3.17-3.4-4.74-1.25-1.75-2.46-3.58-3.65-5.38-1.34-2.03-2.46-4.17-3.71-6.22-1.09-1.77-2.33-3.43-3.5-5.15,6.65,4.36,14.06,7.19,22.51,7.9,12.68,1.07,25.22-3.31,35.18-11.07,1.18-.92,2.31-1.92,3.4-2.96v.02c-1.31,1.82-2.59,3.65-3.84,5.52-2.71,4.01-5.42,8.02-8.32,11.9-.96,1.28-1.94,2.53-2.89,3.78-.98,1.3-1.91,2.6-2.85,3.92-1.75,2.51-3.67,4.88-5.61,7.25-1.75,2.12-3.56,4.17-5.33,6.29-1.6,1.91-3.26,3.76-5.01,5.54-.23-.25-.43-.5-.64-.75ZM150.07,187.69c.57-.3,1.14-.62,1.71-.93.89,1.19,1.78,2.37,2.6,3.6.96,1.46,1.78,3.03,2.62,4.56.87,1.57,1.71,3.17,2.46,4.81.71,1.55,1.37,3.1,2.05,4.65.87,2.17,1.62,4.38,2.26,6.63.34,1.16.66,2.35.91,3.53.23,1.05.39,2.1.55,3.17.16,1.32.25,2.64.27,3.99.02,1.37-.07,2.76-.23,4.15-.09.57-.21,1.14-.36,1.69-.14.52-.34,1-.55,1.5-.46,1.03-1,2.01-1.64,2.92-.39.46-.8.89-1.25,1.3-.8.55-1.66.98-2.55,1.39-2.23.82-4.6,1.37-6.95,1.73-.66.09-1.34.18-2.01.27-4.63.57-9.28,1.12-13.95,1.14-4.65.02-9.32,0-13.99.16-1.19.02-2.37.09-3.56.16-1.12.05-2.23.14-3.35.16h-9.16c-4.06,0-8.09,0-12.15-.23-.05-.02-.09-.02-.16-.02v-.07c.02-.59.05-1.19.05-1.8.02-1.14.05-2.28,0-3.4-.11-2.48-.36-4.95-.64-7.41-.05-.62-.11-1.23-.18-1.85-.05-.48-.09-.96-.16-1.44.09,0,.18-.02.25-.05.36-.09.73-.23,1.07-.36.73-.25,1.48-.55,2.21-.84,1.03-.41,2.03-.87,3.01-1.34,2.05-.96,4.15-1.8,6.18-2.8.98-.48,1.96-.96,2.94-1.44,1.05-.48,2.12-.93,3.17-1.41,2.01-.91,3.97-1.89,6.04-2.69,1.05-.36,2.12-.71,3.15-1.12,1.05-.41,2.01-.96,2.99-1.5.34-.21.68-.43.98-.68.64-.5.87-1.32,1-2.07.14-.84-.09-1.73-.32-2.53-.34-1.19-.77-2.32-1.21-3.46,0-.05-.02-.09-.05-.14-.02-.05-.02-.07-.05-.11-.02-.05-.02-.09-.05-.11.14-.07.27-.16.41-.23.68-.36,1.37-.73,2.05-1.09,1.32-.64,2.64-1.23,3.99-1.8,2.6-1.07,5.08-2.46,7.7-3.51.16-.05.3-.09.43-.16,1.34-.5,2.69-.98,3.99-1.55,1.3-.59,2.58-1.19,3.87-1.73,1.21-.52,2.42-1.03,3.6-1.62ZM137.28,172.48c.52.43,1,.89,1.48,1.34.62.57,1.23,1.09,1.85,1.62,1.32,1.12,2.58,2.32,3.83,3.49,1.28,1.19,2.55,2.37,3.76,3.6.23.21.43.46.64.68-.11.07-.25.14-.39.23-1.03.55-2.05,1.03-3.12,1.46-2.26.96-4.44,2.01-6.72,2.92-.59.23-1.21.46-1.82.68-1.66.64-3.26,1.39-4.83,2.14-1.71.82-3.44,1.57-5.2,2.32-1.71.73-3.33,1.62-4.97,2.48-.3.16-.62.34-.89.52-.93.59-1.69,1.46-1.75,2.6-.05,1,.5,1.94.89,2.83.02.11.07.21.11.32.21.52.39,1.07.55,1.62.16.48.32.96.43,1.46-.75.43-1.53.8-2.32,1.14-.8.3-1.6.55-2.42.84-1.14.41-2.28.91-3.42,1.41-2.12.96-4.24,1.94-6.38,2.89-.96.43-1.89.89-2.83,1.37-1.07.55-2.17,1.05-3.26,1.53-.98.46-1.98.87-2.94,1.32-.66.3-1.32.59-1.98.89.73-.8,1.44-1.62,2.14-2.44,1.5-1.73,3.03-3.46,4.51-5.24,1.62-1.94,3.26-3.87,4.81-5.86.75-.98,1.53-1.96,2.26-2.99.73-1,1.44-2.01,2.17-3.01,1.37-1.94,2.87-3.81,4.28-5.7,1.48-1.98,2.92-3.97,4.31-5.99,2.67-3.83,5.26-7.73,7.95-11.53.64-.91,1.25-1.85,1.89-2.76.3-.43.62-.89.91-1.34.07-.11.5-.73.5-.73.17,0,.34.23.41.27.59.36,1.19.75,1.8,1.12,1.28.8,2.55,1.6,3.76,2.48Z"/>
  </g>
  <g>
    <g>
      <path class="cls-3" d="M268.04,113.04c-6.79,0-12.19-1.86-16.2-5.59-4.01-3.73-6.02-9.06-6.02-16.01v-12.96c0-6.94,2.01-12.28,6.02-16.01,4.01-3.73,9.41-5.59,16.2-5.59s12.19,1.86,16.2,5.59c4.01,3.73,6.02,9.06,6.02,16.01v12.96c0,6.94-2.01,12.28-6.02,16.01-4.01,3.73-9.41,5.59-16.2,5.59ZM268.04,103.94c3.81,0,6.76-1.1,8.87-3.32,2.11-2.21,3.16-5.17,3.16-8.87v-13.58c0-3.7-1.05-6.66-3.16-8.87-2.11-2.21-5.07-3.32-8.87-3.32s-6.7,1.11-8.83,3.32c-2.13,2.21-3.2,5.17-3.2,8.87v13.58c0,3.7,1.07,6.66,3.2,8.87,2.13,2.21,5.08,3.32,8.83,3.32Z"/>
      <path class="cls-3" d="M299.51,111.96v-38.26h9.56v4.32h1.39c.56-1.54,1.5-2.67,2.82-3.39,1.31-.72,2.84-1.08,4.59-1.08h4.63v8.64h-4.78c-2.47,0-4.5.66-6.09,1.97-1.59,1.31-2.39,3.33-2.39,6.06v21.75h-9.72Z"/>
      <path class="cls-3" d="M341.01,113.04c-2.73,0-5.17-.48-7.33-1.43-2.16-.95-3.87-2.34-5.13-4.17-1.26-1.82-1.89-4.05-1.89-6.67s.63-4.82,1.89-6.6c1.26-1.77,3.01-3.11,5.25-4.01,2.24-.9,4.79-1.35,7.68-1.35h10.49v-2.16c0-1.8-.57-3.28-1.7-4.44-1.13-1.16-2.93-1.74-5.4-1.74s-4.22.55-5.4,1.66c-1.18,1.11-1.96,2.53-2.31,4.28l-8.95-3.01c.62-1.95,1.61-3.74,2.97-5.36,1.36-1.62,3.19-2.93,5.48-3.93,2.29-1,5.08-1.5,8.37-1.5,5.04,0,9.03,1.26,11.96,3.78,2.93,2.52,4.4,6.17,4.4,10.95v14.27c0,1.54.72,2.31,2.16,2.31h3.09v8.02h-6.48c-1.9,0-3.47-.46-4.71-1.39-1.23-.93-1.85-2.16-1.85-3.7v-.08h-1.47c-.21.62-.67,1.43-1.39,2.43-.72,1-1.85,1.89-3.39,2.66-1.54.77-3.65,1.16-6.33,1.16ZM342.71,105.17c2.73,0,4.95-.76,6.67-2.28,1.72-1.52,2.58-3.53,2.58-6.06v-.77h-9.8c-1.8,0-3.21.39-4.24,1.16-1.03.77-1.54,1.85-1.54,3.24s.54,2.52,1.62,3.39c1.08.88,2.65,1.31,4.71,1.31Z"/>
      <path class="cls-3" d="M373.71,111.96v-38.26h9.56v5.01h1.39c.62-1.34,1.78-2.61,3.47-3.82,1.7-1.21,4.27-1.81,7.71-1.81,2.98,0,5.59.68,7.83,2.04,2.24,1.36,3.97,3.24,5.21,5.63,1.23,2.39,1.85,5.18,1.85,8.37v22.83h-9.72v-22.06c0-2.88-.71-5.04-2.12-6.48-1.42-1.44-3.43-2.16-6.05-2.16-2.98,0-5.3.99-6.94,2.97-1.65,1.98-2.47,4.74-2.47,8.29v19.44h-9.72Z"/>
      <path class="cls-3" d="M419.38,92.98v-1.23c0-4.01.8-7.44,2.39-10.3,1.59-2.85,3.71-5.04,6.36-6.56,2.65-1.52,5.54-2.28,8.68-2.28,3.5,0,6.14.62,7.95,1.85,1.8,1.23,3.11,2.52,3.93,3.86h1.39v-4.63h9.57v45.05c0,2.62-.77,4.72-2.31,6.29-1.54,1.57-3.6,2.35-6.17,2.35h-25.61v-8.48h22.22c1.44,0,2.16-.77,2.16-2.31v-9.95h-1.39c-.51.82-1.23,1.66-2.16,2.51s-2.16,1.56-3.7,2.12c-1.54.57-3.5.85-5.86.85-3.14,0-6.03-.76-8.68-2.28-2.65-1.52-4.77-3.7-6.36-6.56-1.59-2.85-2.39-6.29-2.39-10.3ZM439.59,103.63c2.98,0,5.48-.95,7.48-2.85,2-1.9,3.01-4.58,3.01-8.02v-.77c0-3.5-.99-6.18-2.97-8.06-1.98-1.88-4.49-2.82-7.52-2.82s-5.48.94-7.48,2.82c-2.01,1.88-3.01,4.56-3.01,8.06v.77c0,3.45,1,6.12,3.01,8.02,2.01,1.9,4.5,2.85,7.48,2.85Z"/>
      <path class="cls-3" d="M487.88,113.04c-3.81,0-7.16-.81-10.07-2.43-2.91-1.62-5.17-3.91-6.79-6.87-1.62-2.96-2.43-6.44-2.43-10.45v-.93c0-4.01.8-7.49,2.39-10.45,1.59-2.96,3.83-5.25,6.71-6.87,2.88-1.62,6.22-2.43,10.03-2.43s7.02.84,9.8,2.51c2.78,1.67,4.94,3.99,6.48,6.94,1.54,2.96,2.31,6.39,2.31,10.3v3.32h-27.85c.1,2.62,1.08,4.76,2.93,6.4,1.85,1.65,4.11,2.47,6.79,2.47s4.73-.59,6.02-1.77c1.29-1.18,2.26-2.49,2.93-3.93l7.95,4.17c-.72,1.34-1.76,2.79-3.12,4.36-1.36,1.57-3.18,2.91-5.44,4.01-2.26,1.11-5.14,1.66-8.64,1.66ZM478.54,88.43h17.9c-.21-2.21-1.09-3.98-2.66-5.32-1.57-1.34-3.61-2.01-6.13-2.01s-4.71.67-6.25,2.01c-1.54,1.34-2.5,3.11-2.85,5.32Z"/>
      <path class="cls-3" d="M532.69,111.96v-8.95h7.1v-36.1h-7.1v-8.95h27.77c3.29,0,6.16.55,8.6,1.66,2.44,1.11,4.34,2.67,5.71,4.71,1.36,2.03,2.04,4.46,2.04,7.29v.77c0,2.47-.46,4.49-1.39,6.06-.93,1.57-2.02,2.78-3.28,3.63-1.26.85-2.46,1.45-3.59,1.81v1.39c1.13.31,2.36.89,3.7,1.74,1.34.85,2.48,2.07,3.43,3.66.95,1.59,1.43,3.68,1.43,6.25v.77c0,2.98-.69,5.54-2.08,7.68-1.39,2.13-3.3,3.77-5.75,4.9-2.44,1.13-5.28,1.7-8.52,1.7h-28.08ZM549.97,80.18h9.41c2.11,0,3.84-.54,5.21-1.62,1.36-1.08,2.04-2.57,2.04-4.47v-.77c0-1.95-.67-3.46-2.01-4.51-1.34-1.05-3.08-1.58-5.25-1.58h-9.41v12.96ZM549.97,102.7h9.57c2.21,0,4-.54,5.36-1.62,1.36-1.08,2.04-2.62,2.04-4.63v-.77c0-2.01-.67-3.55-2.01-4.63-1.34-1.08-3.14-1.62-5.4-1.62h-9.57v13.27Z"/>
      <path class="cls-3" d="M603.2,113.04c-3.81,0-7.16-.81-10.07-2.43-2.91-1.62-5.17-3.91-6.79-6.87-1.62-2.96-2.43-6.44-2.43-10.45v-.93c0-4.01.8-7.49,2.39-10.45,1.59-2.96,3.83-5.25,6.71-6.87,2.88-1.62,6.22-2.43,10.03-2.43s7.02.84,9.8,2.51c2.78,1.67,4.94,3.99,6.48,6.94,1.54,2.96,2.31,6.39,2.31,10.3v3.32h-27.85c.1,2.62,1.08,4.76,2.93,6.4,1.85,1.65,4.11,2.47,6.79,2.47s4.73-.59,6.02-1.77c1.29-1.18,2.26-2.49,2.93-3.93l7.95,4.17c-.72,1.34-1.76,2.79-3.12,4.36-1.36,1.57-3.18,2.91-5.44,4.01-2.26,1.11-5.14,1.66-8.64,1.66ZM593.86,88.43h17.9c-.21-2.21-1.09-3.98-2.66-5.32-1.57-1.34-3.61-2.01-6.13-2.01s-4.71.67-6.25,2.01c-1.54,1.34-2.5,3.11-2.85,5.32Z"/>
      <path class="cls-3" d="M642.15,113.04c-2.73,0-5.17-.48-7.33-1.43-2.16-.95-3.87-2.34-5.13-4.17-1.26-1.82-1.89-4.05-1.89-6.67s.63-4.82,1.89-6.6c1.26-1.77,3.01-3.11,5.25-4.01,2.24-.9,4.79-1.35,7.68-1.35h10.49v-2.16c0-1.8-.57-3.28-1.7-4.44-1.13-1.16-2.93-1.74-5.4-1.74s-4.22.55-5.4,1.66c-1.18,1.11-1.96,2.53-2.31,4.28l-8.95-3.01c.62-1.95,1.61-3.74,2.97-5.36,1.36-1.62,3.19-2.93,5.48-3.93,2.29-1,5.08-1.5,8.37-1.5,5.04,0,9.03,1.26,11.96,3.78,2.93,2.52,4.4,6.17,4.4,10.95v14.27c0,1.54.72,2.31,2.16,2.31h3.08v8.02h-6.48c-1.9,0-3.47-.46-4.71-1.39-1.23-.93-1.85-2.16-1.85-3.7v-.08h-1.47c-.21.62-.67,1.43-1.39,2.43-.72,1-1.85,1.89-3.39,2.66s-3.65,1.16-6.33,1.16ZM643.85,105.17c2.73,0,4.95-.76,6.67-2.28,1.72-1.52,2.58-3.53,2.58-6.06v-.77h-9.8c-1.8,0-3.21.39-4.24,1.16-1.03.77-1.54,1.85-1.54,3.24s.54,2.52,1.62,3.39c1.08.88,2.65,1.31,4.71,1.31Z"/>
      <path class="cls-3" d="M674.86,111.96v-38.26h9.57v5.01h1.39c.62-1.34,1.77-2.61,3.47-3.82,1.7-1.21,4.27-1.81,7.71-1.81,2.98,0,5.59.68,7.83,2.04,2.24,1.36,3.97,3.24,5.21,5.63,1.23,2.39,1.85,5.18,1.85,8.37v22.83h-9.72v-22.06c0-2.88-.71-5.04-2.12-6.48-1.42-1.44-3.43-2.16-6.05-2.16-2.98,0-5.3.99-6.94,2.97-1.65,1.98-2.47,4.74-2.47,8.29v19.44h-9.72Z"/>
      <path class="cls-3" d="M727.23,69.22c-1.75,0-3.23-.57-4.44-1.7-1.21-1.13-1.81-2.62-1.81-4.47s.6-3.34,1.81-4.47c1.21-1.13,2.69-1.7,4.44-1.7s3.29.57,4.47,1.7c1.18,1.13,1.77,2.62,1.77,4.47s-.59,3.34-1.77,4.47c-1.18,1.13-2.67,1.7-4.47,1.7ZM722.37,111.96v-38.26h9.72v38.26h-9.72Z"/>
      <path class="cls-3" d="M760.33,113.04c-3.81,0-7.16-.81-10.07-2.43-2.91-1.62-5.17-3.91-6.79-6.87-1.62-2.96-2.43-6.44-2.43-10.45v-.93c0-4.01.8-7.49,2.39-10.45,1.59-2.96,3.83-5.25,6.71-6.87,2.88-1.62,6.22-2.43,10.03-2.43s7.02.84,9.8,2.51c2.78,1.67,4.94,3.99,6.48,6.94,1.54,2.96,2.31,6.39,2.31,10.3v3.32h-27.85c.1,2.62,1.08,4.76,2.93,6.4,1.85,1.65,4.11,2.47,6.79,2.47s4.73-.59,6.02-1.77c1.29-1.18,2.26-2.49,2.93-3.93l7.95,4.17c-.72,1.34-1.76,2.79-3.12,4.36-1.36,1.57-3.18,2.91-5.44,4.01-2.26,1.11-5.14,1.66-8.64,1.66ZM750.99,88.43h17.9c-.21-2.21-1.09-3.98-2.66-5.32-1.57-1.34-3.61-2.01-6.13-2.01s-4.71.67-6.25,2.01c-1.54,1.34-2.5,3.11-2.85,5.32Z"/>
      <path class="cls-3" d="M245.51,192.06v-8.95h7.1v-36.1h-7.1v-8.95h22.22c7.25,0,12.77,1.84,16.55,5.52,3.78,3.68,5.67,9.14,5.67,16.39v10.18c0,7.25-1.89,12.72-5.67,16.39-3.78,3.68-9.29,5.52-16.55,5.52h-22.22ZM262.79,182.81h5.09c4.11,0,7.12-1.08,9.02-3.24,1.9-2.16,2.85-5.19,2.85-9.1v-10.8c0-3.96-.95-7.01-2.85-9.14-1.9-2.13-4.91-3.2-9.02-3.2h-5.09v35.48Z"/>
      <path class="cls-3" d="M316.17,193.14c-3.81,0-7.16-.81-10.07-2.43-2.91-1.62-5.17-3.91-6.79-6.87-1.62-2.96-2.43-6.44-2.43-10.45v-.93c0-4.01.8-7.5,2.39-10.45,1.59-2.96,3.83-5.25,6.71-6.87,2.88-1.62,6.22-2.43,10.03-2.43s7.02.84,9.8,2.51,4.94,3.99,6.48,6.94c1.54,2.96,2.31,6.39,2.31,10.3v3.32h-27.85c.1,2.62,1.08,4.76,2.93,6.4,1.85,1.65,4.11,2.47,6.79,2.47s4.73-.59,6.02-1.77c1.28-1.18,2.26-2.49,2.93-3.93l7.95,4.17c-.72,1.34-1.76,2.79-3.12,4.36-1.36,1.57-3.18,2.91-5.44,4.01-2.26,1.1-5.14,1.66-8.64,1.66ZM306.84,168.54h17.9c-.21-2.21-1.09-3.98-2.66-5.32-1.57-1.34-3.61-2.01-6.13-2.01s-4.71.67-6.25,2.01c-1.54,1.34-2.5,3.11-2.85,5.32Z"/>
      <path class="cls-3" d="M359.14,193.14c-4.99,0-9.08-1.08-12.26-3.24-3.19-2.16-5.12-5.25-5.79-9.26l8.95-2.31c.36,1.8.96,3.21,1.81,4.24.85,1.03,1.9,1.76,3.16,2.2,1.26.44,2.63.66,4.13.66,2.26,0,3.93-.4,5.01-1.2,1.08-.8,1.62-1.79,1.62-2.97s-.51-2.09-1.54-2.74c-1.03-.64-2.67-1.17-4.94-1.58l-2.16-.39c-2.67-.51-5.12-1.22-7.33-2.12-2.21-.9-3.99-2.15-5.32-3.74-1.34-1.59-2.01-3.65-2.01-6.17,0-3.81,1.39-6.72,4.17-8.76,2.78-2.03,6.43-3.05,10.95-3.05,4.27,0,7.82.95,10.65,2.85,2.83,1.9,4.68,4.4,5.55,7.48l-9.02,2.78c-.41-1.95-1.25-3.34-2.51-4.17-1.26-.82-2.82-1.23-4.67-1.23s-3.27.32-4.24.96c-.98.64-1.47,1.53-1.47,2.66,0,1.23.51,2.15,1.54,2.74,1.03.59,2.42,1.04,4.17,1.35l2.16.39c2.88.51,5.49,1.2,7.83,2.04,2.34.85,4.19,2.06,5.55,3.63,1.36,1.57,2.04,3.69,2.04,6.36,0,4.01-1.45,7.11-4.36,9.29-2.91,2.19-6.8,3.28-11.69,3.28Z"/>
      <path class="cls-3" d="M388.52,149.33c-1.75,0-3.23-.57-4.44-1.7-1.21-1.13-1.81-2.62-1.81-4.47s.6-3.34,1.81-4.47c1.21-1.13,2.69-1.7,4.44-1.7s3.29.57,4.47,1.7c1.18,1.13,1.77,2.62,1.77,4.47s-.59,3.34-1.77,4.47c-1.18,1.13-2.67,1.7-4.47,1.7ZM383.66,192.06v-38.26h9.72v38.26h-9.72Z"/>
      <path class="cls-3" d="M402.33,173.09v-1.23c0-4.01.8-7.44,2.39-10.3,1.59-2.85,3.71-5.04,6.36-6.56,2.65-1.52,5.54-2.28,8.68-2.28,3.5,0,6.14.62,7.95,1.85,1.8,1.23,3.11,2.52,3.93,3.86h1.39v-4.63h9.57v45.05c0,2.62-.77,4.72-2.31,6.29-1.54,1.57-3.6,2.35-6.17,2.35h-25.61v-8.49h22.22c1.44,0,2.16-.77,2.16-2.31v-9.95h-1.39c-.51.82-1.23,1.66-2.16,2.51s-2.16,1.56-3.7,2.12c-1.54.57-3.5.85-5.86.85-3.14,0-6.03-.76-8.68-2.28-2.65-1.52-4.77-3.7-6.36-6.56-1.59-2.85-2.39-6.29-2.39-10.3ZM422.54,183.73c2.98,0,5.48-.95,7.48-2.85,2-1.9,3.01-4.58,3.01-8.02v-.77c0-3.5-.99-6.18-2.97-8.06-1.98-1.88-4.49-2.82-7.52-2.82s-5.48.94-7.48,2.82c-2.01,1.88-3.01,4.56-3.01,8.06v.77c0,3.45,1,6.12,3.01,8.02s4.5,2.85,7.48,2.85Z"/>
      <path class="cls-3" d="M453.39,192.06v-38.26h9.57v5.01h1.39c.62-1.34,1.77-2.61,3.47-3.82,1.7-1.21,4.27-1.81,7.71-1.81,2.98,0,5.59.68,7.83,2.04,2.24,1.36,3.97,3.24,5.21,5.63,1.23,2.39,1.85,5.18,1.85,8.37v22.83h-9.72v-22.06c0-2.88-.71-5.04-2.12-6.48-1.42-1.44-3.43-2.16-6.05-2.16-2.98,0-5.3.99-6.94,2.97-1.65,1.98-2.47,4.74-2.47,8.29v19.44h-9.72Z"/>
    </g>
    <g>
      <path class="cls-2" d="M574.44,146.05v19.2s18.84-6.49,18.84-6.49l3.44,9.52-18.82,6.12,11.65,16.27-8.54,6.13-11.26-16.91-11.44,16.92-8.81-6.13,11.83-16.27-18.99-6.12,3.46-9.58,18.64,6.73v-19.39s10.01,0,10.01,0Z"/>
      <path class="cls-3" d="M580.64,198.76l-10.92-16.39-11.07,16.37-11.11-7.73,11.53-15.87-18.54-5.97,4.41-12.22,18.09,6.53v-18.8h12.77v18.65l18.29-6.3,4.38,12.14-18.38,5.98,11.36,15.86-10.83,7.76ZM551.43,190.35l6.5,4.53,11.81-17.46,11.61,17.44,6.26-4.49-11.95-16.68,19.26-6.26-2.49-6.9-19.38,6.67v-19.76h-7.25v19.98l-19.19-6.93-2.5,6.94,19.45,6.27-12.12,16.67Z"/>
    </g>
  </g>
</svg>